<?xml version="1.0" standalone="no"?>
<!DOCTYPE svg PUBLIC "-//W3C//DTD SVG 20010904//EN"
 "http://www.w3.org/TR/2001/REC-SVG-20010904/DTD/svg10.dtd">
<svg version="1.0" xmlns="http://www.w3.org/2000/svg"
 width="600.000000pt" height="600.000000pt" viewBox="0 0 600.000000 600.000000"
 preserveAspectRatio="xMidYMid meet">
<metadata>
Created by potrace 1.14, written by Peter Selinger 2001-2017
</metadata>
<g transform="translate(0.000000,600.000000) scale(0.100000,-0.100000)"
fill="#000000" stroke="none">
<path d="M1690 4054 c-8 -1 -37 -6 -64 -9 -54 -7 -51 -16 9 -35 22 -7 88 -37
146 -68 l107 -55 101 59 c55 32 101 62 101 65 0 26 -320 61 -400 43z"/>
<path d="M2139 3898 c-57 -33 -114 -67 -127 -75 l-24 -15 84 -82 83 -82 69 64
c44 41 95 77 142 99 l74 35 -24 19 c-26 20 -130 81 -157 91 -10 4 -57 -17
-120 -54z"/>
<path d="M1330 3919 c-13 -6 -26 -12 -28 -14 -5 -4 148 -265 156 -265 12 0
302 172 302 179 0 12 -150 79 -215 96 -66 17 -177 19 -215 4z"/>
<path d="M1164 3812 c-24 -30 -67 -114 -79 -151 -7 -23 -6 -23 51 9 l59 33
-67 -70 -68 -71 0 -76 c0 -42 2 -76 5 -76 7 0 266 150 279 161 8 7 -140 269
-152 268 -4 0 -17 -12 -28 -27z"/>
<path d="M2680 3789 c-166 -16 -292 -69 -386 -163 -214 -215 -159 -553 121
-743 33 -22 121 -71 195 -108 237 -118 310 -184 310 -280 0 -112 -93 -175
-257 -175 -132 0 -321 48 -456 117 -27 13 -50 23 -52 21 -2 -2 2 -63 8 -136
12 -156 4 -145 149 -196 148 -53 244 -70 398 -70 351 2 589 147 655 401 33
127 10 292 -55 392 -56 89 -134 149 -317 245 -189 101 -241 133 -296 185 -67
63 -80 106 -51 164 23 45 61 74 118 92 109 33 233 13 434 -72 14 -6 16 43 6
185 l-7 92 -36 10 c-115 33 -352 52 -481 39z"/>
<path d="M3405 3758 c-16 -44 -95 -361 -92 -365 3 -2 22 4 44 15 93 48 281 85
347 68 l26 -6 0 -600 c0 -393 -4 -616 -11 -650 -6 -27 -26 -73 -45 -100 l-34
-50 325 0 c179 0 325 4 325 8 0 5 -9 17 -19 26 -11 10 -30 41 -43 69 l-23 52
-3 621 -3 622 50 7 c97 13 202 -10 268 -61 l32 -25 6 23 c41 181 75 335 75
345 0 19 -1218 19 -1225 1z"/>
<path d="M4762 3738 c68 -89 63 -29 63 -808 0 -768 1 -749 -57 -816 l-30 -34
326 0 327 0 -25 33 c-63 82 -61 56 -61 797 0 371 4 692 8 712 4 20 23 60 42
89 19 28 35 53 35 55 0 2 -147 4 -326 4 l-326 0 24 -32z"/>
<path d="M1695 3639 c-93 -54 -171 -103 -173 -107 -2 -6 248 -444 263 -460 4
-4 246 137 264 154 10 9 14 31 12 71 -2 53 17 171 35 216 5 15 -16 41 -100
123 -59 57 -112 104 -119 104 -7 -1 -88 -46 -182 -101z"/>
<path d="M901 3589 c-28 -40 -49 -74 -47 -76 3 -3 65 29 85 43 6 5 21 97 17
101 -2 3 -27 -28 -55 -68z"/>
<path d="M1319 3420 c-66 -39 -105 -71 -164 -135 l-76 -84 26 -96 c27 -99 44
-145 54 -145 3 0 20 8 36 18 17 10 53 31 80 47 l50 28 -45 -49 c-25 -27 -58
-63 -74 -81 l-28 -32 31 -66 c19 -42 36 -65 45 -63 31 7 426 244 423 254 -3
17 -261 454 -267 454 -3 0 -44 -23 -91 -50z"/>
<path d="M840 3354 c-47 -36 -89 -75 -93 -87 -18 -48 -2 -47 96 9 l97 56 0 44
c0 24 -3 44 -7 44 -5 0 -46 -30 -93 -66z"/>
<path d="M1975 3044 c-60 -36 -114 -69 -118 -74 -5 -4 34 -81 86 -170 l95
-163 72 -43 71 -42 122 71 c67 39 134 78 149 87 l28 17 -92 54 c-125 73 -224
171 -263 261 -17 37 -32 67 -35 67 -3 0 -54 -29 -115 -65z"/>
<path d="M849 2994 c-68 -52 -128 -99 -132 -103 -10 -10 12 -171 23 -171 20 0
310 175 306 185 -3 5 -17 49 -33 97 -15 48 -31 88 -34 88 -3 0 -61 -43 -130
-96z"/>
<path d="M1614 2832 c-89 -54 -128 -85 -193 -156 -53 -57 -79 -92 -73 -100 79
-107 146 -186 155 -186 7 0 44 18 82 41 113 66 112 66 78 23 -17 -21 -47 -55
-67 -73 -20 -19 -36 -40 -36 -46 0 -6 20 -30 44 -54 l44 -43 178 106 c99 58
178 110 176 117 -7 29 -255 439 -265 439 -7 -1 -62 -31 -123 -68z"/>
<path d="M939 2679 c-79 -61 -145 -114 -147 -119 -2 -5 3 -20 10 -34 l13 -25
155 90 c85 50 159 94 163 98 8 8 -32 101 -44 101 -3 0 -71 -50 -150 -111z"/>
<path d="M2623 2646 c4 -10 7 -69 7 -132 l0 -114 31 0 c17 0 39 5 50 10 18 10
79 117 79 139 0 10 -123 95 -155 107 -15 6 -17 4 -12 -10z"/>
<path d="M2407 2548 c-48 -28 -84 -55 -80 -59 10 -10 151 -59 170 -59 10 0 13
21 13 85 0 47 -3 85 -7 85 -5 0 -48 -24 -96 -52z"/>
<path d="M1115 2389 c-77 -60 -141 -112 -143 -117 -3 -11 106 -122 120 -122
13 0 297 163 298 170 0 6 -114 158 -128 171 -4 4 -70 -42 -147 -102z"/>
<path d="M2010 2315 c-37 -24 -195 -193 -188 -200 11 -11 140 -65 191 -80 58
-17 59 -17 103 7 24 12 44 26 44 30 0 3 -15 11 -34 18 -39 12 -41 20 -52 163
-4 54 -11 87 -18 86 -6 0 -27 -11 -46 -24z"/>
<path d="M1350 2150 c-63 -49 -116 -93 -118 -99 -2 -5 6 -15 18 -21 18 -10 37
-2 133 54 166 96 158 88 123 125 -17 17 -32 31 -35 31 -3 -1 -58 -41 -121 -90z"/>
<path d="M1665 1975 c-38 -30 -71 -58 -73 -63 -4 -12 82 -22 183 -22 64 0 87
4 115 22 l35 21 -65 29 c-35 16 -78 37 -95 48 l-30 19 -70 -54z"/>
</g>
</svg>
